<svg width="32" height="32" viewBox="0 0 32 32" fill="none" xmlns="http://www.w3.org/2000/svg">
<path d="M31.5838 15.592C31.5878 15.5548 31.5878 15.5172 31.5838 15.48C30.5518 -5.36801 0.439844 -4.12801 0.383844 16.28C0.335844 37.392 31.5838 36.16 31.5838 15.744C31.5882 15.6934 31.5882 15.6426 31.5838 15.592Z" fill="#00AECC"/>
<path d="M15.1119 27.704C12.2177 27.7788 9.41316 26.6962 7.31995 24.696C5.30395 22.672 4.28795 19.896 4.29595 16.312C4.29595 8.05601 10.4719 4.31201 16.1759 4.31201C21.1999 4.31201 27.1999 7.25601 27.6879 15.512C27.6879 15.632 27.6879 15.744 27.6879 15.864C27.1999 23.632 22.3999 27.704 15.1119 27.704Z" fill="#33E1FF"/>
<path d="M19.3517 20.512C19.3007 20.3515 19.1869 20.2185 19.0362 20.1431C18.8855 20.0678 18.7108 20.0566 18.5517 20.112V20.112C16.7672 20.698 14.8084 20.066 13.7028 18.5476C12.5971 17.0292 12.5971 14.9709 13.7028 13.4525C14.8084 11.934 16.7672 11.3021 18.5517 11.888V11.888C18.7108 11.9435 18.8855 11.9323 19.0362 11.8569C19.1869 11.7816 19.3007 11.6486 19.3517 11.488L19.8877 9.88804C19.9432 9.72898 19.932 9.55426 19.8566 9.40359C19.7813 9.25293 19.6483 9.13912 19.4877 9.08804V9.08804C16.4839 8.10716 13.1901 9.17382 11.3315 11.7294C9.47284 14.285 9.47284 17.7471 11.3315 20.3027C13.1901 22.8583 16.4839 23.9249 19.4877 22.944V22.944C19.6483 22.893 19.7813 22.7791 19.8566 22.6285C19.932 22.4778 19.9432 22.3031 19.8877 22.144L19.3517 20.512Z" fill="#00AECC"/>
</svg>
